<svg viewBox="0 0 100 100" xmlns="http://www.w3.org/2000/svg">
    <g fill="none" stroke="#FFFFFF" stroke-linecap="round" stroke-linejoin="round">
        <line x1="50" y1="50" x2="50" y2="20" stroke-width="1" opacity="0.2" />
        <line x1="50" y1="50" x2="76" y2="34" stroke-width="1" opacity="0.2" />
        <line x1="50" y1="50" x2="76" y2="66" stroke-width="1" opacity="0.2" />
        <line x1="50" y1="50" x2="50" y2="80" stroke-width="1" opacity="0.2" />
        <line x1="50" y1="50" x2="24" y2="66" stroke-width="1" opacity="0.2" />
        <line x1="50" y1="50" x2="24" y2="34" stroke-width="1" opacity="0.2" />
        <polygon points="50,20 76,34 76,66 50,80 24,66 24,34" stroke-width="2" />
    </g>
    <polygon 
        points="35.00,31.00 35.00,69.00 39.00,69.00 39.00,37.46 60.58,69.00 61.00,69.00 65.00,69.00 65.00,31.00 61.00,31.00 61.00,62.54 39.42,31.00 39.00,31.00" 
        fill="#FFFFFF" stroke="none" />
</svg>
